/* XPM */
static char * 30w_samurai_xpm[] = {
"30 30 2 1",
" 	c None",
".	c #FFFFFF",
"       .             ..       ",
"        ..          ..        ",
"        ....      ...         ",
"         ..        ..         ",
"         .. ...... ..         ",
"         . ..........         ",
"         . ..    ....         ",
"         ..  ....  ..         ",
"         .....  .....         ",
"          ....  ....          ",
"           ........           ",
"      .  ..   ..   ..  .      ",
"      .....        .....      ",
"      ..... ..  .  .....      ",
"      .....        .....      ",
"       ....        ....       ",
"    ..     .  ..  .     ..    ",
"   ....    ..    .     ....   ",
"    .....    ....    .....    ",
"  .  .....   . ..   .....  .  ",
"  ..  ....          ....  ..  ",
" .....  .            .  ..... ",
" .......              ....... ",
" ....... ..        .. ....... ",
" ....... ............ ....... ",
"........ ............ ........",
"....... ......................",
"....... .............. .......",
"....... .............. .......",
" ...... .............. ...... "};
