/* XPM */
static char * 30w_castle_xpm[] = {
"30 30 2 1",
" 	c None",
".	c #FFFFFF",
"                              ",
"              ..              ",
"              ..              ",
"            ..  ..            ",
"         ............         ",
"         ..        ..         ",
"          ..........          ",
"           . .  . .           ",
"           ..    ..           ",
"       ................       ",
"        .            .        ",
"         ............         ",
"          .        .          ",
"          .        .          ",
"          ..........          ",
"      ..................      ",
"      ........  ........      ",
"         . .. .. .. .         ",
"         ..  ....  ..         ",
"   ........................   ",
"    ..                  ..    ",
"     ....................     ",
"      . .    ....    . .      ",
"      ... . . .. . . ...      ",
"       .              .       ",
"       ................       ",
"      ..              ..      ",
"      .                .      ",
"      ..................      ",
"                              "};
