/* XPM */
static char * 30w_lantern_xpm[] = {
"30 30 2 2",
"  	c None",
". 	c #FFFFFF",
"                          . . . .                           ",
"                        .         .                         ",
"                      . . .     . . .                       ",
"                    . .             . .                     ",
"                  . . . . . . . . . . . .                   ",
"                .                                           ",
"              .                             .               ",
"            .                                 .             ",
"            .                                 .             ",
"            .                                 .             ",
"            . . . . . . . . . . . . . . . . . .             ",
"            .                                 .             ",
"            . . . . . . . . . . . . . . . . . .             ",
"            . . . . . . . . . . . . . . . . . .             ",
"            .                                 .             ",
"            . . . . . . . . . . . . . . . . . .             ",
"            .                                 .             ",
"            . . . . . . . . . . . . . . . . . .             ",
"            .                                 .             ",
"            . . . . . . . . . . . . . . . . . .             ",
"            . . . . . . . . . . . . . . . . . .             ",
"            .                                 .             ",
"            . . . . . . . . . . . . . . . . . .             ",
"            .                                 .             ",
"            .                                 .             ",
"            .                                 .             ",
"                                            .               ",
"                . . . . . . . . . . . . . .                 ",
"                    . . . . . . . . . .                     ",
"                      . . . . . . . .                       "};
