/* XPM */
static char * 30w_mountain_xpm[] = {
"31 31 2 2",
"  	c None",
". 	c #FFFFFF",
"                                                              ",
"                                                              ",
"                                                              ",
"                                                              ",
"                                                              ",
"                        .                                     ",
"                      . . .                                   ",
"                      . . .                                   ",
"                    . . . . .                                 ",
"                    . .   . .           .                     ",
"                  . .       . .       . . .                   ",
"                  . .       . .       . . .                   ",
"                . .           . .   . .   . .                 ",
"              . . .           . .   . .   . . .               ",
"              . . . . . . . . . . . .       . .               ",
"            . . . . . . . . . . . . .         . .             ",
"            . .                   . . . . . . . .             ",
"          . .                     . . . . . . . . .           ",
"          . .                       . .         . .           ",
"        . .                         . .           . .         ",
"        . .                           . .         . .         ",
"      . .                             . .           . .       ",
"      . .                               . .         . .       ",
"    . .                                 . . .         . .     ",
"    . .                                   . .         . .     ",
"  . . . . . . . . . . . . . . . . . . . . . . . . . . . . .   ",
"  . . . . . . . . . . . . . . . . . . . . . . . . . . . . .   ",
"                                                              ",
"                                                              ",
"                                                              ",
"                                                              "};
