/* XPM */
static char * 30w_ninja_xpm[] = {
"30 30 4 1",
" 	c None",
".	c #FEFEFE",
"+	c #FFFFFF",
"@	c #FEFEFF",
"            .++++++++++       ",
"          +++++++++++++++     ",
"         +++++++++++++++++    ",
"        +++++++++++++++++++   ",
"       +++++++++++++++++++++  ",
"++    +++++++++++++++++++++++ ",
"++++  +++++++++++++++++++++++ ",
"+++++.+++++++++++++++++++++++ ",
" +++++++++++++++++++++++++++++",
"  ++++++++               +++++",
"   ++++++                 ++++",
"   +++++    .+       ++    +++",
"  ++++++   .+++     ++++   +++",
" ++++++.   ++++     ++++   .++",
" ++++++@    ++       ++    +++",
"++++.+++                   .++",
"+++  +++++++++++++++++++++++++",
"+    +++++++++++++++++++++++++",
"     +++++++++++++++++++++++++",
"     +++++++++++++++++++++++++",
"      +++++++++++++++++++++++ ",
"      +++++++++++++++++++++++ ",
"      +++++++++++++++++++++++ ",
"       +++++++++++++++++++++  ",
"       .++++++++++++++++++++  ",
"        +++++++++++++++++++   ",
"         +++++++++++++++++    ",
"          +++++++++++++++     ",
"            +++++++++++       ",
"              ++++++@         "};
