/* XPM */
static char * 30_lotus_xpm[] = {
"31 31 2 1",
" 	c None",
".	c #FFFFFF",
"                               ",
"                               ",
"                               ",
"                               ",
"               .               ",
"              ...              ",
"             .....             ",
"      ..     .. ..     ..      ",
"      ....  ..   ..  ....      ",
"      ........   ........      ",
"      ..  ...     ...  ..      ",
"      ..   ..     ..   ..      ",
"      ..   ..     ..   ..      ",
"      ..   ..     ..   ..      ",
" .......   ..     ..   ....... ",
" ...  ..   ..     ..   ..  ... ",
" ..    ..  ..     ..  ..    .. ",
"  ..   ..  ..     ..  ..   ..  ",
"  ...   ..  ..   ..  ..   ...  ",
"   ..    .. ..   .. ..    ..   ",
"   ....   ..... .....   ....   ",
"  ......   .........   ......  ",
" ..    .................    .. ",
" ...     .............     ... ",
"  ....     .... ....     ....  ",
"    .........     .........    ",
"       ...           ...       ",
"                               ",
"                               ",
"                               ",
"                               "};
