/* XPM */
static char * 30w_dragon_xpm[] = {
"30 30 4 1",
" 	c None",
".	c #FFFFFF",
"+	c #FEFEFE",
"@	c #FEFEFF",
"                              ",
"                              ",
"         .+        ..         ",
"         ..        ..         ",
"          .        .          ",
"          ..      ..          ",
"          ..      ..          ",
"     +    ..      ..    +     ",
"      ..+            ...      ",
"      ... +......... +..      ",
"        ..  ..  ..  .+        ",
"   .   .....  ..  .....   .   ",
"    .        ....        .    ",
"    ..   . .      . .   ..    ",
"     . .   . +..@ .   . .     ",
"     +. ...        ... ++     ",
"      ..   .  ..  .   ..      ",
"    ..... .. .... .. ....+    ",
"     ..   .. .... ..   .+     ",
"      ... ..  ..  .. ...      ",
"       .  . . .+ . .  .       ",
"       .. . . +. . . ..       ",
"       .+ .   ..   . +.       ",
"           ........           ",
"          .        .          ",
" ..     .+   +...   @.     .. ",
"   .    .            .    .   ",
"   .   .+            ..   .   ",
"    .++                ..+    ",
"                              "};
