/* XPM */
static char * 128w_yama_uba_xpm[] = {
"128 128 5 1",
" 	c None",
".	c #FFFFFF",
"+	c #FEFEFE",
"@	c #FDFDFD",
"#	c #FDFDFE",
"                                                        ...+....+....+..                                                        ",
"                                                  ...+....+....+....+....+....                                                  ",
"                                              .+....+....+....+....+....+....+....                                              ",
"                                           ...+....+....+....+....+....+....+....+...                                           ",
"                                         ....+....+....+...          .@....+....+....+.                                         ",
"                                      .+....+....+..                        ...+....+....@                                      ",
"                                    ..+....+....                                ...+....+...                                    ",
"                                  ...+....+..                                      ....+....+.                                  ",
"                                 ...+....+                                            +....+...                                 ",
"                               ....+....                                                ..+....+.                               ",
"                             @....+...                                                    ....+....                             ",
"                            +....+..                                                        .+....+.                            ",
"                           +....+.                                                            ...+...                           ",
"                         .+....+.                                                              .+....+.                         ",
"                        .+....+                                                                  ...+...                        ",
"                       .+....@                                                                    .+....+                       ",
"                      .+....                                                                        ...+..                      ",
"                     .+....                                                                          .+....                     ",
"                    .+....                                                                            ....+.                    ",
"                   .+....                                                       +.                     ..+...                   ",
"                  .+....                                                       +...                     +....+                  ",
"                 .+....                                                       +....                      ...+..                 ",
"                .+....                                                       +....+                       .+....                ",
"                +....                                                       @....+.                        ....+                ",
"               +....                                                        ....+..                         ..+..               ",
"              +....                                                        ....+...                          +....              ",
"             @....@                                                       ....+....                          ....+.             ",
"             ....+                                                       ....+....+                           ..+..             ",
"            ....+                                                       ....+. ..+.                            +....            ",
"            ...+.                                                      ....+.  .+..                            ....+            ",
"           ...+.                                                       ...+.   +...                             ..+..           ",
"          ...+.                                                       ...+.    ....+                             +....          ",
"          ..+..                .+....+....+....+....+....+....+....+....+..    ...+....+....+....                ....+          ",
"         ..+..              ...+....+....+....+....+....+....+....+....+..      .+....+....+....+...              ..+..         ",
"         .+...            ....+....+....+....+....+....+....+....+....+..        ....+....+....+....+.            .+...         ",
"         +...           +....+....+....+....+....+....+....+....+....+.           ..+....+....+....+....           ....         ",
"        +....         .+....+....                                                              ...+....+..         ...+.        ",
"        ....         .+....+..                                                                    ....+....         .+..        ",
"       ....+        .+....+                                                                          +....+.        +....       ",
"       ...+.       .+....@                                                                            ...+...       ....+       ",
"       ..+.       .+....                                                                                +....+       ..+.       ",
"      ..+..      .+....                                                                                  ...+..      .+...      ",
"      .+...      +....                                                                                    .+...      @....      ",
"      +...      +....       ...+....+...                                                ...+....+...       ....+      ...+      ",
"      ....     @....@       ..+....+....+....                                      ..+....+....+....       ...+.      ..+.      ",
"     ....+     ....+        .+....+....+....+..                                  ...+....+....+....+        .+...     .+...     ",
"     ...+.     ...+          ....+....+....+....+                              ....+....+....+....+          ....     @....     ",
"     ..+.     ...+.                   ....+....+...                          +....+....+..                   ...+.     ...+     ",
"     .+..     ..+.                         ...+....+.                      .+....+...                         .+..     ..+.     ",
"     +...     .+..                            ....+...                    .+....+.                            +...     .+..     ",
"     ....    .+...                              .+....@                  .+....+                              ....@    +...     ",
"    ....+    +...                                ....+.                  +....@                               ...+.    ....     ",
"    ...+.    ....                                  .+...                +....                                  .+..    ...+.    ",
"    ..+..    ...+                                   ....+              +....                                   +...    ..+..    ",
"    .+...    ..+.                                   ...+.              ....+                                   ....    .+...    ",
"    +....    .+..     ..@                            .+..              ...+                            .+.     ...+    @....    ",
"    ....@    +...     .+....+....#....+....          +...              ..+.          ...+....+....+....+...    ..+.    ....+    ",
"    ...+.    ....    .+....+....+....+....+...        ..                +.        +....+....+....+....+....    .+..    ...+.    ",
"    ..+..    ...+     ....+....+....+....+....+.                                .+....+....+....+....+....     +...    ..+..    ",
"    .+...    ..+.      ..+....+....+....+....+....                            ..+....+....+....+....+....      ....    .+...    ",
"    @....    .+..          ..+....#...   ...+....+.                          ..+....+..   ....#....+.          ...+    +....    ",
"    ....+    +...          .+...             ...+...                        ..+....             ..+..          ..+.    ....     ",
"     ..+.    ....           ....@              +....+                      ..+...              ..+..           .+..    ...+     ",
"     .+..    ...+           ...+.               ...+..                    ..+...               .+...           +...    ..+.     ",
"     +...    ..+.            .+...               .+....                  ..+...               .+...            ....    .+..     ",
"     ....    .+..            @....@               ....+                  .+...               .+....            ...+    +...     ",
"     ...+.   +...             ...+.                ..+..                .+...                +....             ..+.   @....     ",
"     ..+..   ....              .+...               .+...                +....               +....              .+..   ....@     ",
"      +...   ...+              @....+              +....+              +....+              +....@              +...   ...+      ",
"      ....   ..+.               ...+...          .+....+.              ....+...          .+....+               ....   ..+.      ",
"      ...+.  .+..                .+....+.      ..+....+...            ....+....+.      ..+....+                ...+  ..+..      ",
"      ..+..  +...                 ....+....+....+....+....            ...+....+....+....+....+                 ..+.  .+...      ",
"       +...  ....                  ..+....+....+....@ ...+            ..+. ..+....+....+....@                  .+..  +...       ",
"       ....@ ...+                    ....+....+....    .+.            .+.    ....+....+....                    +... @....       ",
"       ...+. ..+.       .+....+        .+....+..                                +....+...        ...+...       .... ....@       ",
"        .+....+..      .+....+...                                                              ....+....+      ...+....+        ",
"        +....+...     .+....+....+.                                                          @....+....+..     ..+....+.        ",
"         ...+....     +....+....+...                                                        +....+....+...     .+....+.         ",
"         ..+....+    @....   ..+....+.                                                    .+....+..   ....     +....+..         ",
"         .+....+.    ....#   .+....+....                                                ..+....+...   ...+.    ....+...         ",
"          ....+..    ...+.   +....+....+.                                              ..+....+....   ..+..    ...+...          ",
"          ...+...    ..+..    ...+ ...+....                                          ...+....@....    .+...    ..+....          ",
"           .+....    .+...    ..+.  .+....+..                                      ....+....  ...+    @....    .+....           ",
"           @....+    #....    .+...   ...+....+.                                .+....+...   ...+.    ....+    +....            ",
"            ...+.    ....@    @....    .+....+....@                          ...+....+...    ..+..    ...+.    ....+            ",
"             .+..    ...+.     ...+   .+....+....+....+....#....#....#....+....+....+....+   .+..     ..+..    ...+             ",
"             +...    ..+..     ..+.  .+....+....+....+....+....+....+....+....+....+....+..  +...     .+...    ..+.             ",
"             ....    .+...     .+....+....+....+....+....+....+....+....+....+....+....+....+....     +....    .+..             ",
"             ...+    @....      ....+....  ...+.  .+....+....+....+....+....+.  .+...  ....+....      ....@    +...             ",
"             ..+.     ...+      ...+....   ..+..      .+....+....@....+...      +....   ..+....+      ...+     ....             ",
"             .+..     ..+..     ..+....     +....    .+....+.     ...+....+    +....     @....+.     ...+.     ...+             ",
"             +....    .+...     .+...        ...+.   +....+...    ..+....+.   @....        ..+..     ..+..    ...+.             ",
"              ...+     ....+     ...         ..+..  +.... ....   ..+.. .+...  ....+         +..     ..+..     ..+.              ",
"              ..+.     ...+..                 +....@....  ...+.  .+...  ....@....+                 ..+...     .+..              ",
"              .+...     .+....                ....+....+   .+.. .+...   ...+....+.                ..+...     .+...              ",
"               ....      ....+..               ..+....+    +....+....    .+....+.               ...+...      +...               ",
"               ...+.      ..+....               +....+.     ...+....     +....+.               ...+...      +....               ",
"                .+...      @....+.              ....+.      ..+....+      ...+..              ...+...      @....                ",
"                +....        ..+....             ..+.        +....+        .+..             ....+..        ....+                ",
"                 ...+.        +....+.             +..        ....+.        +..             ....+..        ....+                 ",
"                  .+...        ...+...                        ..+.                        ....+..        ....+                  ",
"                  @....+.       .+....+                       .+..                       ....+..       @....+.                  ",
"                   ...+...        ...+...                                              @....+.        +....+.                   ",
"                    .+....+        .+....+                                            +....+.        +....+.                    ",
"                     ....+..        ....+..                                          +....+.        +....+                      ",
"                      ..+....         .+....                                        +....+         +....+.                      ",
"                      .+....+.         ....+..                                    .+....+         +....+..                      ",
"                     .+....+...         ..+....                                  .+....+         +....+...                      ",
"                     +....+....+.        @....+.                                .+....@        .+....+....+                     ",
"                     ....  ...+...         ..+....                            ..+....         .+....+  ..+.                     ",
"                     ...+   .+....+         +....+..                        ...+....         .+....@   .+..                     ",
"                    ...+.    ....+..         ...+....+.                  @....+....         .+....@    +....                    ",
"                    ..+.       .+....          +....+....@            ..+....+...          .+....       ...+                    ",
"                   ..+..        ....+.          ...+....+....+....+....+....+...          .+....        ..+..                   ",
"                   .+..          ..+...           @....+....+....+....+....+.            .+....          +...                   ",
"                  .+...           +....+.            .+....+....+....+....#            ..+....           ....+                  ",
"                  +...             ...+...              ..+....+....+...              ..+....             ..+.                  ",
"                  ....              .+....+                                          ..+....              .+..                  ",
"                  ...+.              ....+...                                      ...+....              .+...                  ",
"                  ..+....@....@....@....+....+.                                  ....+....@....@....@....+....                  ",
"                   +....+....+....+....+....+....                              @....+....+....+....+....+....                   ",
"                   ....+....+....+....+....+....+..                          .+....+....+....+....+....+....@                   ",
"                     .+....+....+....+....+....+....+.                    ...+....+....+....+....+....+....                     ",
"                       ...+....+....+....+....+....+....+...        ...+....+....+....+....+....+....+...                       ",
"                                               ...+....+....+....+....+....+....#                                               ",
"                                                  ....+....+....+....+....+...                                                  ",
"                                                     +....+....+....+....+.                                                     ",
"                                                         @....+....+...                                                         "};
