/* XPM */
static char * f128w_yama_uba_xpm[] = {
"128 128 11 1",
" 	c None",
".	c #FEFEFE",
"+	c #FFFFFF",
"@	c #FFFFFE",
"#	c #FEFEFF",
"$	c #FDFDFD",
"%	c #FBFBFB",
"&	c #FCFCFF",
"*	c #FCFCFC",
"=	c #FDFDFF",
"-	c #FBFBFF",
"                                                       .+++++++++++++++++                                                       ",
"                                                  .+++.+++++++++++++++++++..+.                                                  ",
"                                              ++.++++++++++++++++++++++++++++++++.                                              ",
"                                           .++++++++++++++++++++++++++++++++++++++.@+                                           ",
"                                         .++++++++++++.+++.          ...++#++++++++++++                                         ",
"                                      ++++++++++++++                        +..++++++++++.                                      ",
"                                    ++++++++++..                                @+.+++++++++                                    ",
"                                  .++++++++++                                      .+++++++++.                                  ",
"                                 .++++++++                                            +++++++++                                 ",
"                               .+++++++.                                                ..++++++.                               ",
"                             ..++++++.                                                    .+++++++.                             ",
"                            ++++++++                                                        +++++++.                            ",
"                           +++++++                                                            +++++++                           ",
"                         ++++++++                                                              .++++++.                         ",
"                        +++++++                                                                  +++++++                        ",
"                       +++++..                                                                    +++++++                       ",
"                      +++++.                                                                        ++++++                      ",
"                     +++++.                                                                          .++++.                     ",
"                    ++++..                                                                            .++++.                    ",
"                   ++++..                                                                              ++++++                   ",
"                  ++++..                                                       +++.                     ++++++                  ",
"                 ++++..                                                       ++++.                      ++++++                 ",
"                ++++#.                                                       ++++++                       .++++.                ",
"                ++++.                                                       $++++++                        .++++                ",
"               ++++.                                                        .++++++                         +++++               ",
"              ++++.                                                        .+++++++                          ++++.              ",
"             .++++.                                                       .++++++++                          +++++.             ",
"             .++++                                                       .+++++++++                           +++++             ",
"            .++++                                                       .+++++ ++++                            ++++.            ",
"            +++++                                                      .+++++  ++++                            .++++            ",
"           .++++                                                       +++++   ++++                             +++++           ",
"          .++++                                                       +++++    +++++                             ++++.          ",
"          +++++                 +++++++++++++++++++++++++++++++++++++++++++     ++++++++++++++++                 .++++          ",
"         +++++              .+++++++++++++++++++++++++++++++++++++++++++++      ++++++++++++++++++++              ++++.         ",
"         ++++.            .++++++++++++++++++++++++++++++++++++++++++++++        ++++++++++++++++++++.            .++++         ",
"         ++++           +++++++++++++++++++++++++++++++++++++++++++++++           +++++++++++++++++++++.           ++++         ",
"        ++++.         ++++++++++.$                                                            .+++++++++.          .++++        ",
"        ++++         +++++++++                                                                    .+++++++.         ++++        ",
"       .++++        +++++++                                                                          ++++++.        ++++.       ",
"       .++++       +++++..                                                                            +++++++       .++++       ",
"       ++++       +++++.                                                                                ++++++       ++++       ",
"      +++++      +++++.                                                                                  ++++++      ++++.      ",
"      ++++.      ++++.                                                                                    #++++      .++++      ",
"      ++++      ++++.       @+++++++++++                                                ++++++++++++       #++++      ++++      ",
"      +++.      ++++.       +++++++++++++++++                                      +++++++++++++++++       .++++      ++++      ",
"     .++++     .++++        +++++++++++++++++++                                  +++++++++++++++++++        .+++.     ++++.     ",
"     .++++     ++++          ++++++++++++++++++++                              ++++++++++++++++++++          ++++     .++++     ",
"     ++++     .++++                   +++++++++++++                          +++++++++++++                   ++++.     ++++     ",
"     ++++     ++++                         ++++++++++                      ++++++++++                         ++++     ++++     ",
"     ++++     ++++                            ++++++++                    ++++++++                            ++++     ++++     ",
"     ++++    ++++.                              ++++++%                  +++++++                              ++++.    ++++     ",
"    .++++    ++++.                               ++++++                  +++++%                               .+++.    ++++     ",
"    .++++    .+++                                  +++++                +++++                                  ++++    ++++.    ",
"    +++++    ++++                                   +++++              +++++                                   ++++    +++++    ",
"    ++++.    ++++                                   +++++              +++++                                   .++.    .++++    ",
"    ++++.    ++++      +$                            ++++              ++++                            ++      ++++    .++++    ",
"    ++++.    ++++     +++++++++++&+++++++++          ++++              ++++          +++++++++++++++++++++     ++++    .++++    ",
"    ++++.    +++.     ++++++++++++++++++++++++        ++                ++        ++++++++++++++++++++++++     ++++    .++++    ",
"    +++++    ++++     ++++++++++++++++++++++++++                                +++++++++++++++++++++++++.     ++++    +++++    ",
"    .++++    ++++      +++++++++++++++++++++++++++                            ++++++++++++++++++++++++++.      .+++    ++++.    ",
"    .++++    ++++          +++++++&+++   ++++++++++                          ++++++++++   ++++&++++++          ++++    ++++.    ",
"    .++++    ++++          +++++             +++++++                        +++++++             +++++          ++++    ++++     ",
"     ++++    +++.           ++++*              ++++++                      ++++++              +++++           ++++    ++++     ",
"     ++++    ++++           +++++               ++++++                    ++++++               +++++           ++++    ++++     ",
"     ++++    ++++            +++++               ++++++                  ++++++               +++++            .+++    ++++     ",
"     ++++    ++++            *++++*               +++++                  +++++               +++++.            ++++    ++++     ",
"     ++++.   ++++             +++++                +++++                +++++                +++++             ++++   .+++.     ",
"     +++++   +++.              +++++               +++++                +++++               +++++              ++++   .+++.     ",
"      ++++   ++++              *+++++              ++++++              ++++++              +++++*              ++++   ++++      ",
"      .+++   ++++               +++++++          ++++++++              ++++++++          +++++++               .+++   ++++      ",
"      ++++.  ++++                ++++++++      +++++++++++            +++++++++++      ++++++++                ++++  +++++      ",
"      +++++  ++++                 ++++++++++++++++++++++++            ++++++++++++++++++++++++                 ++++  ++++.      ",
"       ++++..+++.                  +++++++++++++++++% ++++            ++++ +++++++++++++++++*                  ++++++++++       ",
"       .+++..++++                    ++++++++++++++    +++            +++    ++++++++++++++                    ++++..+++.       ",
"       .+++++++++       +++++++        +++++++++                                +++++++++        +++++++       .+++..+++.       ",
"        +++++++++      ++++++++++                                                              ++++++++++      +++++++++        ",
"        +++++++++     +++++++++++++                                                          *++++++++++++     +++++++++        ",
"         +++++++.     ++++++++++++++                                                        ++++++++++++++     ++++++++         ",
"         ++++++++     ++++   +++++++++                                                    +++++++++   ++++     ++++++++         ",
"         .+++++++    .+++=   +++++++++++                                                +++++++++++   +++++    .++++++.         ",
"          .++++++    +++++   ++++++++++++                                              +++++++++++.   +++++    ++++++@          ",
"          .++++++    +++++    +++++++++++++                                          ++++++++$++++    +++++    ++++++.          ",
"           +++++.    #++++    ++++  +++++++++                                      +++++++++  ++++    $++++    +++++.           ",
"           .+++++    #+++.    +++++   ++++++++++                                ++++++++++   +++++    .++++    +++++            ",
"            +++++    #+++$    $++++    +++++++++++%                          ++++++++++++    +++++    +++++    .++++            ",
"            +++++    #++++     ++++   +++++++++++++++++++++-++++-++++-++++++++++++++++++++   ++++     +++++    ++++             ",
"             ++++    +++++     +++++ ++++++++++++++++++++++++++++++++++++++++++++++++++++++ +++++     ++++.    ++++             ",
"             +++.    .++++     +++++++++++++++++++++++++++++++++++++++++++++++++++++++++++++++++#     ++++.    ++++             ",
"             ++++     ++++      +++++++++  +++++ ++++++++++++++++++++++++++++++ +++++  +++++++++      ++++     ++++             ",
"             ++++     ++++      +++++++.   +++++      +++++++++++%++++++++      +++++   ++++++++      ++++     +++.             ",
"             ++++     +++++     ++++++.     +++++    +++++++++    +++++++++    +++++     *++++++     +++++    .++++             ",
"             ++++.    .++++     .++++        +++++   +++++++++    +++++++++   *++++        +++++     +++++    .++++             ",
"              ++++     .++++     .++         +++++  +++++ ++++*  +++++ +++++  +++++         +++     +++++     ++++              ",
"              ++++     .+++++                 +++++*++++  +++++  +++++ *++++*+++++                 +++++.     ++++              ",
"              +++++     .+++++                ++++++++++   ++++++++++   ++++++++++                +++++.     ++++.              ",
"               ++++      .++++++               ++++++++    ++++++++++    ++++++++               .+++++.      ++++               ",
"               ++++.      .+++++.               +++++++     ++++++++     +++++++               ++++++.      ++++.               ",
"                ++++.      .+++++.              ++++++      ++++++++      ++++++              ++++++.      .++++                ",
"                +++++        ++++++.             ++++        ++++++        ++++             .++++++       ..++++                ",
"                 +++++        ++++++.             +++        ++++++        +++             .++++++        .++++                 ",
"                  +++++        +++++++                        ++++                        .++++++        .++++                  ",
"                  .+++++.       .++++++                       ++++                       .++++++       ..+++++                  ",
"                   .++++++        +++++++                                              $.+++++        +++++++                   ",
"                    .++++++        .++++++                                            +++++++        +++++++                    ",
"                     +++++++        .++++++                                          +++++++        +++++++                     ",
"                      ++++++.         .+++++                                        ++++++         +++++++                      ",
"                      +++++++.         .++++++                                    +++++++         ++++++++                      ",
"                     ++++++++++         .+++++.                                  +++++++         +++++++++.                     ",
"                     +++++++++++.        .+++++.                                +++++..        ++++++++++++                     ",
"                     .+++..+++++++         ++++++.                            ++++++.         +++++++++++++                     ",
"                    .++++   .++++++         +++++++.                        .++++++.         +++++..   ++++                     ",
"                    .++++    .++++++         +++++++++.                  ..+++++++.         +++++..    +++++                    ",
"                    ++++       #++++.          ++++++++++.            ++++++++++.          +++++.       ++++                    ",
"                   +++++        #++++.          .++++++++++++++++++.+++++++++++           +++++.        +++++                   ",
"                   ++++          ++++++            ++++++++++++++++++++++++++            ++++@.          ++++                   ",
"                  ++++.           ++++++.            .+++++++++++++++++++.#            +++++@.           .++++                  ",
"                  ++++.            +++++++               .+++++++++.+++               ++++++.            +++++                  ",
"                  .+++.             .++++++                                          ++++++.             +++++                  ",
"                  .+++.             .++++++++                                      .++++++.              ++++.                  ",
"                  +++++++...+....+...+++++++++.                                  ..+++++++...+....+....++++++.                  ",
"                   +++++++++++++++++++++++++++++.                              ..+++++++++++++++++++++++++++.                   ",
"                    +++++++++++++++++++++++++++++..                          ++++++++++++++++++++++++++++++.                    ",
"                     .+++++++++++++++++++++++++++++++.                    .+++++++++++++++++++++++++++++++.                     ",
"                       +++++++++++++++++++++++++++++++++++++        .+++#+++++++++++++++++++++++++++++++.                       ",
"                                               ++++++++++++++++++++++++++++++++.#                                               ",
"                                                  +++++++++++++++++++++++++++.                                                  ",
"                                                    .+++++++++++++++++++.++                                                     ",
"                                                       ++.+++++++++++++.$                                                       "};
