/* XPM */
static char * ff128w_yama_uba_xpm[] = {
"128 128 8 1",
" 	c None",
".	c #FEFEFE",
"+	c #FFFFFF",
"@	c #FEFEFF",
"#	c #FBFBFB",
"$	c #FCFCFC",
"%	c #FDFDFF",
"&	c #FFFFFE",
"                                                      ..++++++++++++++++..                                                      ",
"                                                     ...++++++++++++++++...                                                     ",
"                                                   .....++++++++++++++++.....                                                   ",
"                                                ..........++++++++++++...........                                               ",
"                                            .........                      .........                                            ",
"                                          .....                                  .....                                          ",
"                                       .....                                        ....                                        ",
"                                     ....                                              ....                                     ",
"                                   ....                                                  ...                                    ",
"                                  ...                                                      ...                                  ",
"                                ...                                                          ...                                ",
"                               ..                                                              ..                               ",
"                             ...                                                                ...                             ",
"                            ..                                                                    ..                            ",
"                           ..                                                                      ..                           ",
"                         ..                                                                          ..                         ",
"                        ..                                                                            ..                        ",
"                       ..                                                                              ..                       ",
"                      ..                                                                                ..                      ",
"                     ..                                                                                  ..                     ",
"                    ..                                                                                    ..                    ",
"                   ..                                                           .                          ..                   ",
"                  ..                                                          .++.                          ..                  ",
"                 ..                                                          .++++.                          .                  ",
"                 .                                                          .+++++.                           .                 ",
"                ..                                                         ..+++++.                           ..                ",
"               ..                                                         ..+++++++                            ..               ",
"               .                                                         ..++++++++                             .               ",
"              ..                                                        ..+++++++++                             ..              ",
"             ..                                                         .++++++++++.                             ..             ",
"             .                                                         .+++++.++++++                              .             ",
"            ..                                                       ..++++    .+++++                             ..            ",
"           ..                        .........+...+++.++++++++++++++++++++      +++++++.....                       .            ",
"           ..                  ..@++++++++++++++++++++++++++++++++++++++++      .++++++++++++....                  ..           ",
"          ..                ...++++++++++++++++++++++++++++++++++++++++++        ..++++++++++++.....                ..          ",
"          ..               ..+++++++....++..+++++++++++++++++++++++++++            ..++...+...........              ..          ",
"          ..             .......                                                               ........             ..          ",
"         ..            ......                                                                      ......            ..         ",
"         ..           ....                                                                           .....           ..         ",
"        ...          ...                                                                               ....          ...        ",
"        ..          ...                                                                                  ...          ..        ",
"        ..         ...                                                                                    ...         ..        ",
"       ...        ...                                                                                      ...        ...       ",
"       ...       ...           ...@+@...                                                ..........          ...       ...       ",
"       ...       ..           .++++++++++@..                                        ++.++++++++++.           ..       ...       ",
"       ..       ...           .++++++++++++++..                                  .+++++++++++++++.           ...       ...      ",
"      ...      ...             ...+++++++++++++++                              .++++++++++++.....             ...      ...      ",
"      ...      ...                     ...+++++++++                          +++++++++.++                     ...      ...      ",
"      ...     ....                         .+++++++++                      +++++++++.                         ....     ...      ",
"      ...     ...                             .+++++++                    ++++++++                             ...     ...      ",
"      ...     ...                               ++++++#                  +++++++                               ...     ...      ",
"      ...    ....                                ++++++                  +++++$                                ....    ....     ",
"     ....    ....                                  +++++                +++++                                  ....    ....     ",
"     ....    ....                                   +++++              +++++                                   ....    ....     ",
"     ....    ....                                   +++++              +++++                                   ....    ....     ",
"     ....    ....                                    ++++              ++++                                    ....    ....     ",
"     ....    ....       ..@++@@@@@.@+++++++          ++++              ++++          +++++++++.++++++++.       ....    ....     ",
"     ....    ....       .+++++++++++++++++++++        ++                ++        ++++++++++++++++++++++.      ....    ..@.     ",
"     ....    ....       .+++++++++++++++++++++++                                +++++++++++++++++++++++.       ....    ..+.     ",
"     ....    ...         .++++++++++++++++++++++++                            ++++++++++++++++++++++++.        ....    ..+.     ",
"     ....   ....          .++++++@@@@.   ++++++++++                          ++++++++++   .+@@@++++++.         .....   ....     ",
"     ....   ....           .++++@            +++++++                        +++++++            +++++@           ....   ....     ",
"      ....  ....            .+++.              ++++++                      ++++++              +++++            ....  .....     ",
"      ....  ....            .++++               ++++++                    ++++++               ++++.            ....  ....      ",
"      ..........             .+++.               ++++++                  ++++++               ++++.             ..........      ",
"      ..........              .+++.               +++++                  +++++               ++++.              ..........      ",
"      ..........              .++++                +++++                +++++                ++++.              ..........      ",
"      ..........               .++++               +++++                +++++               ++++.               ..........      ",
"      ..........                .++++              ++++++              ++++++              +++++               ..@@.......      ",
"       .....@+@.                .++++++          ++++++++              ++++++++          ++++++.               ..++@@@+@.       ",
"       ..++++++..                .++++++.      +++++++++++            +++++++++++      ++++++++                ..+++++++.       ",
"       ..++++++..                 .+++++++++++++++++++++++            +++++++++++++++++++++++.                 ..++++++..       ",
"       ..++++++..                  ..+++++++++++++++# ++++            ++++ ++++++++++++++++..                  .@++++++..       ",
"        .+++++++.                    .+++++++++++++    +++            +++    +++++++++++++.                    .+++++++.        ",
"        .+++++++.         ..++.        .++++++++                                ++++++++.        ..@..         .+++++++.        ",
"        .+++++++.       @++++++++                                                              ..++++++.       .+++++++.        ",
"        .+++++++.      @++++++++++.                                                          ..+++++++++.      .+++++++.        ",
"         .++++++.     .+++++++++++++                                                        +++++++++++++.     .++++++.         ",
"         .++++++..    .++++++++++++++.                                                    +++++++++...+++.    ..++++++.         ",
"          .+++++..    @++@@@+++++++++++.                                                +++++++++++....++.    ..+++++.          ",
"          .+++++..   .@++@. .+++++++++++.                                              +++++++++++.. ..+++.   ..+++++.          ",
"           .++++..   .@++@   +++++++++++++.                                          .++++++++++++.   .+++.   ..++++.           ",
"           .++++..   .@+@.    +++++++++++++++                                      .+++++++..+++++    .+++.   ..++++.           ",
"            .+++..   .@@@.    .++++++++++++++++.                                ++++++++++...++++.    .+++.   ..+++.            ",
"            .@++..   ..@@.    .+++++++++++++++++++.                          .++++++++++++..+++++.    .+++.   ..+++.            ",
"             .@..    ..@@.     ++++++++++++++++++++++++++++%@+++%@+++%@++++++++++++++++++++++++++     .+++.    .@+.             ",
"             ....    ..@..     +++++++++++++++++++++++++++++++++++++++++++++++++++++++++++++++++.     .++..    ....             ",
"             ....     ....     .++++++++++++++++++++++++++++++++++++++++++++++++++++++++++++++++.     .++.     ....             ",
"              ...     ....     .+++++++....++++++++++++++++++++++++++++++++++++++++++...++++++++.     .++.     ...              ",
"              ...     ....      &+++++..   ++++++.  +++++++++++...+++++++++.   +++++.   .++++++@      .++.    ....              ",
"              ....    .....     .++++..     +++++.   +++++++++    +++++++++   .++++.     .+++++.     .@+..    ....              ",
"              ....     ....      ....        ++++.  ++++++++++    +++++++++.  .++++        .++@      .+..     ....              ",
"               ...     .....                 ++++++++++++.++++.  +++++++++++...++++                 .....     ...               ",
"               ...      .....                 ++++++++++..++++++++++++..++++.@++++                 .....      ...               ",
"               ....      ......               .+++++++++  +++++++++++.  ++++++++++               ......      ....               ",
"                ...      .......               ++++++++    +++++++++.    ++++++++               ......       ...                ",
"                ....       ......               +++++++     ++++++++     .++++++               ......       ....                ",
"                 ...        ......              .+++++      ++++++++      +++++.              ......        ...                 ",
"                  ...        ......               +++        ++++++        +++               ......        ...                  ",
"                  ....         .....                         .+++++                         .....         ....                  ",
"                   ....         .....                         .+++                         .....         ....                   ",
"                    .....        .....                                                    .....        .....                    ",
"                    ..++..         ....                                                  ....         ..+++.                    ",
"                     .++++.         .....                                              .....         ++++++                     ",
"                     .+++++.          ....                                            ....          +++++++                     ",
"                     .++++++.          ....                                          ....          ++++++++                     ",
"                     .++++++..          ....                                        ....          ++++++++.                     ",
"                     .+++++++..           ...                                     ....           +++++++++.                     ",
"                     .++++++++..           ....                                  ....           .+++++++++.                     ",
"                     .+++++++....           ....                                ....           ....+++++++.                     ",
"                     ..++.........            ....                            ....            ........++++.                     ",
"                     ....     .....            .....                        .....            .....     .++.                     ",
"                     ...        ....             .....                    .....             ....        .+.                     ",
"                    ....         .....             ........          ........             .....         ....                    ",
"                    ...          ......              ......................              ......          ...                    ",
"                    ...           ..+++.                 ..............                .......           ...                    ",
"                    ...           ..+++++.                                            ..++&...           ...                    ",
"                   ....           .+++++++@                                          .+++++...           ...                    ",
"                    ....         ..+++++++++.                                      ..++++++....         ....                    ",
"                    .....       ..+++++++++++.                                    ..++++++++....       .....                    ",
"                    .............+++++++++++++..                                ...++++++++++...............                    ",
"                     ...........+++++++++++++++...                            ....++++++++++++............                      ",
"                        ..........++++++++++++++....                        ......@++++++++++...........                        ",
"                                     .......................        .......................                                     ",
"                                                ....++++++++++++++++++..........                                                ",
"                                                   ..+++++++++++++++++++.....                                                   ",
"                                                     .+++++++++++++++++&...                                                     ",
"                                                      ..+++++++++++++++...                                                      "};
