/* XPM */
static char * 80_lotus_xpm[] = {
"80 80 2 1",
" 	c None",
".	c #FFFFFF",
"                                                                                ",
"                                                                                ",
"                                                                                ",
"                                                                                ",
"                                                                                ",
"                                                                                ",
"                                                                                ",
"                                                                                ",
"                                                                                ",
"                                                                                ",
"                                       ..                                       ",
"                                      ....                                      ",
"                                     ......                                     ",
"                                    ........                                    ",
"                                   ..........                                   ",
"                                  ............                                  ",
"                                  ............                                  ",
"                                 ......  ......                                 ",
"                ....             .....    .....             ....                ",
"               .......          .....      .....          .......               ",
"               .........        .....      .....        .........               ",
"               ...........     .....        .....     ...........               ",
"              ..............   .....        .....   ..............              ",
"              ..... ......... .....          ..... ......... .....              ",
"              .....   .............          .............   .....              ",
"              .....     ..........            ..........     .....              ",
"              .....      .........            .........      .....              ",
"              .....        .......            .......        .....              ",
"              .....         ......            ......         .....              ",
"              .....          ....              ....          .....              ",
"              .....         .....              .....         .....              ",
"              .....         .....              .....         .....              ",
"              .....         .....              .....         .....              ",
"              .....         .....              .....         .....              ",
"              .....         .....              .....         .....              ",
"      .............         .....              .....         .............      ",
"  ..................        .....              .....        ..................  ",
" ...................        .....              .....        ................... ",
" ...................        .....              .....        ................... ",
" ....................       .....              .....       .................... ",
" ......         .....       .....              .....       .....         ...... ",
"  .....         .....       .....              .....       .....         .....  ",
"  .....          .....       ....              ....       .....          .....  ",
"   .....         ......      .....            .....      ......         .....   ",
"   .....          .....      .....            .....      .....          .....   ",
"    .....         ......     .....            .....     ......         .....    ",
"    ......         ......    .....            .....    ......         ......    ",
"     .....         ......     .....          .....     ......         .....     ",
"     ......         ......    .....          .....    ......         ......     ",
"      ......         ......    .....        .....    ......         ......      ",
"       ......         ......   .....        .....   ......         ......       ",
"        ......         ......  ......      ......  ......         ......        ",
"        .......        ........ .....      ..... ........        .......        ",
"      ...........       ..............    ..............       ...........      ",
"     .............        .............  .............        .............     ",
"    ................       ............  ............       ................    ",
"  .........  .........      ........................      .........  .........  ",
" ........     ............    ....................    ............     ........ ",
".......         ................................................         .......",
"......            ............................................            ......",
".......             ........................................             .......",
" .......               ..................................               ....... ",
"  ........                 ..........................                 ........  ",
"   ..........                 .........  .........                 ..........   ",
"    ............          ............    ............          ............    ",
"      ..............................        ..............................      ",
"        ...........................          ...........................        ",
"          ......................                ......................          ",
"             .................                    .................             ",
"                 ........                              ........                 ",
"                                                                                ",
"                                                                                ",
"                                                                                ",
"                                                                                ",
"                                                                                ",
"                                                                                ",
"                                                                                ",
"                                                                                ",
"                                                                                ",
"                                                                                "};
