/* XPM */
static char * 80w_dragon_xpm[] = {
"80 80 3 1",
" 	c None",
".	c #FEFEFE",
"+	c #FFFFFF",
"                                                                                ",
"                                                                                ",
"                                                                                ",
"                                                                                ",
"                                                                                ",
"                         .+                          .+                         ",
"                        .+++                        ++++                        ",
"                        +++++                      .++++                        ",
"                        +++++                      +++++                        ",
"                         ++++                      ++++                         ",
"                         +++++                    +++++                         ",
"                         .++++                    ++++.                         ",
"                          +++++                  .++++                          ",
"                          ++++.                  +++++                          ",
"                          .++.+                  +++++                          ",
"                          ++.++                  ++++.                          ",
"                          +.++.                  +++.+                          ",
"                          .++.+                  ++.++                          ",
"                          ++.++                  +.++.                          ",
"              .           +.++.        .+        .++.+           .              ",
"              +++.        .++.+        ++        ++.++        ++++              ",
"               ++++.+                                      .+++++               ",
"               .+++++.+                                  +.+++++.               ",
"                ++++.++.                                +.++++++                ",
"                .++.++.+  ++.++.++++++++++++.++.++.++.  .+++++++                ",
"                ++.++.      ++.++++++++++++.++.++.++      .+++++                ",
"                 .++          ++++++++++++.++.++.+          .++                 ",
"                 +              ++++++.++.++.++.              +                 ",
"                     .++.++.+    +++        ++.    +.+++++.                     ",
"                    .++.++.++.   .+          .+   +.++++++++                    ",
"       .+          .++.++.+++++       .++.       +.+++++++++.          +.       ",
"        ++++      .++.++.++++++.    +.++.++.    +.++++++++++++      .++.        ",
"         ++.+      +.++.++..+..     .++.++.+     ++..+..+..++      .++.         ",
"          .++.+                    .++.++.++.                    +.++.          ",
"          ++.++                    ++      .+                    .++.+          ",
"           .++.   ++   ++++   ++                ++   ++++   +.   ++.+           ",
"            +.+   +.   ++++   ++      .++.      ++   ++++   .+   +.+            ",
"            .++   .++        ++.     .++.++     ++.        .++   .++            ",
"             +.+  +++        +.+    .++.++.+    .++        ++.  .++             ",
"              ++   .++.    ++.+    .++.++.++.    ++++    .++.   ++              ",
"              +.+   ++++++++.+     ++      .+     .++.++.++.   ++.              ",
"               ++    .+++++.+                      +.++.++.    +.               ",
"               +++              .              .              +.+               ",
"                +++.          +.+    .+++++    .++          ++.+                ",
"                +++++.      ++.++   .+++++++   ++.++      .++.++                ",
"          .+    +++++++.  .++.++.  .++++++++.  +.++.++  +.++.++.    +.          ",
"           +++++++++++.+  ++.++.+  +++++++++.  .++.++.  .++.++++++++.           ",
"            .+++++.++.+   +.++.++  ++++++++++  ++.++.+   +.++.+++++.            ",
"              +++.        .++.++.  ++++++++++  +.++.++        ++++              ",
"               +++        ++.++.+  +++++++++.  .++.++.        .++               ",
"                ++.++.++  +.++.++  ++++++++.+  ++.++.+  ++++++++                ",
"                 .++.++.  .++.++   .++++++.++   .++.++  +++++++                 ",
"                 ++.++.+  ++.+       ++++.+      +.++.  .+++++.                 ",
"                  .++.++  +.++        ++.+        ++.+  .+.+++                  ",
"                  ++.     .++   +++   +.++   .++   .++     ++.                  ",
"                   .+     ++.  .++++   ++   .++.+  ++.     ++                   ",
"                   ++.++  +++  .++++   +.   ++.++  +++  .++++                   ",
"                  ++.++.  .++   ++++   .+   +.++   .++  +++++.                  ",
"                  +.++.+   ++    ++   .++.   ++    ++   ++++.+                  ",
"                 +.++.++   +++        ++.+        +++   +++.++.                 ",
"                           .++.     .++.++.+     +++.                           ",
"                            ++++.++.++.++.++.++.++++                            ",
"                            .++.++.++.++.++.++++++++                            ",
"                             +.++.++.++.++.++.++..+                             ",
"                            +                                                   ",
"                         .++.+                     ++.+                         ",
"  .++.+                ++++.++   .++.++.++.++..    +.++.+                ..++.  ",
"  ++.++.              ++++.       +.++.++++++.       +.++.              ++++.+  ",
"   .++.++             +++            .++.++            +.+             ++++.+   ",
"       +.+           .++                                ++.           +++       ",
"       .++           ++.                                +.+           .++       ",
"        +.           +.+                                .++           ++        ",
"        .+           .+                                  +.           +.        ",
"        ++++      ++.++                                  .++..      ++.+        ",
"         .+++++++++.++                                    +++++++++++.+         ",
"          ++++++++.++                                       ++++++++.+          ",
"                                                                                ",
"                                                                                ",
"                                                                                ",
"                                                                                "};
