/* XPM */
static char * 80w_witch_xpm[] = {
"80 80 4 1",
" 	c None",
".	c #FEFEFE",
"+	c #FFFFFF",
"@	c #FDFDFE",
"                                  .++++++++.++                                  ",
"                             .++++++++++++.++.++.++                             ",
"                          ++.+++++++++.++.++.++.++.++.                          ",
"                        .++.++.+                +.++.++.                        ",
"                      +.++.++                      .++++++                      ",
"                    ++.++.                            ++++++                    ",
"                  .++.++                                .+++++                  ",
"                 .++.+                                    .++.+                 ",
"                .++.                                        .++.                ",
"               .++.                                          +.++               ",
"             +.++@                                            ++.++             ",
"            +.++                                                ++.+            ",
"            .++                                   ++             .++            ",
"           .++                                   +++              +.+           ",
"          .++                                   +++.               ++.          ",
"         .++                                   .++++                +++         ",
"        .++.                                  .+++++                +++.        ",
"        ++.                                  .++.++.                 +++        ",
"       ++.                                   ++. +.+                  ++.       ",
"       +.+                                  ++.  .++                  +++       ",
"      +.+          +.++.++.++.++.++.++++++++++    +.++.++.++.          ++.      ",
"      .++       .+++++.++.++.++.++.+++++++++++     ++.++.++.++..       +.+      ",
"     .++      .++++++.++.++.++.++.++.++..+..        .++.++.++++++.      ++.     ",
"     ++.     .+++.                                            +++++     +.+     ",
"    ++.     ++++                                                ++++     ++.    ",
"    +.+    .+++                                                  .++.    +.+    ",
"    .++   .+++                                                    +.++   .++    ",
"    ++    +++    ++.++.++.+                          .++++++++.    ++.    +.    ",
"   +++   .++     +.++.++.++.++                    ++.+++++++++.     .++   .++   ",
"   +++   ++.           .++.+++++                .++.++.++           ++.   ++.   ",
"   .++   ++                +.++++              .++.++                .+   +.+   ",
"   ++.  +++                   ++++            .++.                   ++.  .++   ",
"   ++   .++                    ++++          .++.                    +.+  +++   ",
"   ++   ++.                     .++          ++.                     .++   ++   ",
"   ++   +.+   +                  +.+        ++.                  .   ++.   ++   ",
"   ++   .++  +.++.++.++.+++.     .++        +.+     .++.++.++.++.++  +.+   ++   ",
"   ++   ++.   ++.++.+++++++++.                    +++++++.++.++.++   .++   ++   ",
"   ++   +.+    .++.++.++..+++++.                +++++.++.++.++.+     ++.   ++   ",
"   ++.  .++      .++        ++.++              ++++.        +.+      +++  .++   ",
"   +.+  ++.       ++.         ++.              +++         +.+       .++  +++   ",
"   .++  +.+       .++          .++            +++          .++       .++  +++   ",
"   ++.  .++        +++          +.+          +++          .++        +++  .++   ",
"   +.+  ++.        .+++         .++          +++         .++.        .++  ++.   ",
"    ++  +.+         ++++       .++.+        +++++       .++.         .++  +.    ",
"    +.+ .++          .++.++.++.++.++        +++++.++.++.++.          ++. +.+    ",
"    .++ ++.           +.++.++.++. +.        ++ +.++.++.++.           +++ .++    ",
"     +. +.+    .+++     +.++.+                    .++.++     +.++    .++ ++     ",
"     .++.++   +++++++                                      ++++++.   ++.++.     ",
"     ++.++.   +++.++.++                                  .++++++++   +.++.+     ",
"      .++++  .++  +.++.+                                .+++++  ++.  .++.+      ",
"      +++++  ++.  .++.++.+                            +.++.++.  +++  ++.++      ",
"       +++.  +++   +.  .++.+                        ++.++  ++   .++  +.++       ",
"       .++.  .++   .++  +.++.++                  +.++.++  +++   ++.  .++.       ",
"        +++  ++.   ++.  .++.++++++.++.++.++.++.++.++.++.  +++   +.+  ++.        ",
"        ++.  +.+   +.++.++.++.+++++++++.++.++.++.++.+++++.++.   .++  +.+        ",
"        ++.  .++    ++.++  +++  .+++++.++.++.++.  .++  +++++    ++.  .++        ",
"        +++   +.+   +.++   .++.  ++++.    +.++.  .++.   +++.   ++.   ++.        ",
"        .++   .++   .++     +++  +++.++  +.++.+  ++.     +++   +.+   +.+        ",
"         +.+   +.+           +++.++ ++.  .++ ++.+++           +.+   +.+         ",
"         .++   .++.+         +++++.  .++.++  +.++++         ++.++   .++         ",
"         ++.+    .++.         .++.   ++.++.   ++++         ++.+    .++.         ",
"          .++     +.++         +.     .++.     ++         ++.+     ++.          ",
"           +.+     ++++        .+     ++.+     .+        ++.+     ++.           ",
"            ++.     .+++.              .+              .++.+     ++.            ",
"             .++.     ++++                            .++.     .++.             ",
"              +.++     ++++                          .++.     .++.              ",
"              .++++     .++.                       +.++.     .++.+              ",
"             .++.+++     +.++.                    +.++.     .++.++.             ",
"             ++. ++++      +.++                  +.++      .++. +++             ",
"             ++.  .++.      ++.++.            .++.++      .++.  .++             ",
"            +++    .+++       ++.++.+      +++++.+       .++.    ++.            ",
"            +++     ++.++      .++.++++++++++++.+      +.++.     .++            ",
"           .++        ++.+        ++++++++++++        +.++        ++.           ",
"           +++         .++.                          +.++         +++           ",
"           ++++         +.++.                      ++.++         ++++           ",
"            ++++++.++.++.++.++.                  .++.++.++++++++++++            ",
"             ++++.++.++.++.++.++..            ++.++.++.++++++++++++             ",
"                             +++++++++.++.++.++.++.                             ",
"                               +++++++++.++.++.++                               ",
"                                   ..++.++.++                                   "};
