/* XPM */
static char * 80w_ninja_xpm[] = {
"80 80 3 1",
" 	c None",
".	c #FEFEFE",
"+	c #FFFFFF",
"                                    ..+++++.++.++.++.++.++                      ",
"                                .+++++++++.++.++.++.++.++++++.                  ",
"                             ++++++++++++.++.++.++.++.+++++++++.                ",
"                           .++++++++++++.++.++.++.++.++++++++++++.              ",
"                          .++++++++++++.++.++.++.++.++++++++++++.++.            ",
"                        +.++++++++++++.++.++.++.++.++++++++++++.++.++           ",
"                       +.++++++++++++.++.++.++.++.++++++++++++.++.++.+          ",
"                      +.++++++++++++.++.++.++.++.++++++++++++.++.++.++.         ",
"                     +.++++++++++++.++.++.++.++.++++++++++++.++.++.++.++        ",
"                    +.++++++++++++.++.++.++.++.++++++++++++.++.++.++.++.+       ",
"                   +.++++++++++++.++.++.++.++.++++++++++++.++.++.++.++.++.      ",
"                   .++++++++++++.++.++.++.++.++++++++++++.++.++.++.++.+++++     ",
"                  .++++++++++++.++.++.++.++.++++++++++++.++.++.++.++.++++++     ",
"+.               .++++++++++++.++.++.++.++.++++++++++++.++.++.++.++.++++++++    ",
"++++.+           ++++++++++++.++.++.++.++.++++++++++++.++.++.++.++.+++++++++    ",
".++.++.+        ++++++++++++.++.++.++.++.++++++++++++.++.++.++.++.+++++++++++   ",
"++.++.++.+      +++++++++++.++.++.++.++.++++++++++++.++.++.++.++.++++++++++++   ",
"+.++.++.++.    +++++++++++.++.++.++.++.++++++++++++.++.++.++.++.++++++++++++.+  ",
" ++.++.++.++   .+++++++++.++.++.++.++.++++++++++++.++.++.++.++.++++++++++++.++  ",
" +.++.++.++.+  +++++++++.++.++.++.++.++++++++++++.++.++.++.++.++++++++++++.++.+ ",
" .++.++.++.++..++++++++.++.++.++.++.++++++++++++.++.++.++.++.++++++++++++.++.++ ",
"  +.++.++.++++++++++++.++.++.++.++.++++++++++++.++.++.++.++.++++++++++++.++.++. ",
"  .++.++.++++++++++++.++.++.++.++.++++++++++++.++.++.++.++.++++++++++++.++.++.+ ",
"   +.++.++++++++++++.++.++.++.+                               +.++++++.++.++.++ ",
"   .++.++++++++++++.++.++.++                                     ..++.++.++.++.+",
"    +.++++++++++++.++.++.+                                         +.++.++.++.++",
"     ++++++++++++.++.++.+                                            +.++.++.++.",
"      .+++++++++.++.++.+                                              ++.++.++.+",
"        +++++++.++.++.+                                                .++.++.++",
"         +++++.++.++.+                                                 ++.++.+++",
"         ++++.++.++.++           ++.+                   .+++.           .++.++++",
"        ++++.++.++.++          .+++++.+                +++++++          ++.+++++",
"      +++++.++.++.++.          +++++.++               +++++++.+          .++++++",
"     +++++.++.++.++.          +++++.++.+              ++++++.++          +++++++",
"    +++++.++.++.++.+          ++++.++.++             .+++++.++.          +++++++",
"   +++++.++.++.++.++          .++.++.++.             +++++.++.+          .++++++",
"   ++++.++.++.++.++.          ++.++.++.+              +++.++.++          .++++++",
"  ++++.++.++.++.++.+           .++.++.+               ++.++.++.          +++++++",
"  +++.++.++.++.++.++           ++.++.++                .++.++.           .++++++",
" .++.++.++.++.++.+++             ++.+                   +.++.            .+++++.",
" ++.++.++.++.++.++++                                                     +++++.+",
" +.++.++.++. +.+++++                                                     ++++.++",
"+.++.++.++.  .++++++                                                     .++.++.",
".++.++.++.   +++++++++.++.++.++.++.++.++..+..++.++.++.++.++.++.++..+..++.++.++.+",
"++.++.++     +++++++++++.++.++.++.++.++++++++++++.++.++.++.++.++++++++++++.++.++",
"+.++.+       .+++++++++.++.++.++.++.++++++++++++.++.++.++.++.++++++++++++.++.++.",
".+           .++++++++.++.++.++.++.++++++++++++.++.++.++.++.++++++++++++.++.++.+",
"              +++++++.++.++.++.++.++++++++++++.++.++.++.++.++++++++++++.++.++.++",
"              ++++++.++.++.++.++.++++++++++++.++.++.++.++.++++++++++++.++.++.++.",
"              +++++.++.++.++.++.++++++++++++.++.++.++.++.++++++++++++.++.++.++.+",
"              ++++.++.++.++.++.++++++++++++.++.++.++.++.++++++++++++.++.++.++.+ ",
"              .++.++.++.++.++.++++++++++++.++.++.++.++.++++++++++++.++.++.++.++ ",
"              ++.++.++.++.++.++++++++++++.++.++.++.++.++++++++++++.++.++.++.++. ",
"               .++.++.++.++.++++++++++++.++.++.++.++.++++++++++++.++.++.++.++.+ ",
"               ++.++.++.++.++++++++++++.++.++.++.++.++++++++++++.++.++.++.++.+  ",
"               +.++.++.++.++++++++++++.++.++.++.++.++++++++++++.++.++.++.++.++  ",
"               .++.++.++.++++++++++++.++.++.++.++.++++++++++++.++.++.++.++.++.  ",
"                +.++.++.++++++++++++.++.++.++.++.++++++++++++.++.++.++.++.+++   ",
"                .++.++.++++++++++++.++.++.++.++.++++++++++++.++.++.++.++.++++   ",
"                 +.++.++++++++++++.++.++.++.++.++++++++++++.++.++.++.++.+++++   ",
"                 .++.++++++++++++.++.++.++.++.++++++++++++.++.++.++.++.+++++    ",
"                  +.++++++++++++.++.++.++.++.++++++++++++.++.++.++.++.+++++.    ",
"                  .++++++++++++.++.++.++.++.++++++++++++.++.++.++.++.++++++     ",
"                   +++++++++++.++.++.++.++.++++++++++++.++.++.++.++.++++++.     ",
"                   .+++++++++.++.++.++.++.++++++++++++.++.++.++.++.+++++++      ",
"                    ++++++++.++.++.++.++.++++++++++++.++.++.++.++.+++++++       ",
"                     ++++++.++.++.++.++.++++++++++++.++.++.++.++.++++++++       ",
"                      ++++.++.++.++.++.++++++++++++.++.++.++.++.++++++++        ",
"                      .++.++.++.++.++.++++++++++++.++.++.++.++.++++++++         ",
"                       +.++.++.++.++.++++++++++++.++.++.++.++.++++++++          ",
"                        ++.++.++.++.++++++++++++.++.++.++.++.++++++++           ",
"                         .++.++.++.++++++++++++.++.++.++.++.++++++++            ",
"                          +.++.++.++++++++++++.++.++.++.++.++++++++             ",
"                            +.++.++++++++++++.++.++.++.++.++++++++              ",
"                             ++.++++++++++++.++.++.++.++.+++++++                ",
"                               ++++++++++++.++.++.++.++.++++++.                 ",
"                                .+++++++++.++.++.++.++.+++++.                   ",
"                                   ++++++.++.++.++.++.+++++                     ",
"                                     .++.++.++.++.++.++.                        ",
"                                         +.++.++.++.                            "};
