/* XPM */
static char * 80w_samurai_xpm[] = {
"80 80 2 1",
" 	c None",
".	c #FFFFFF",
"                  ...                                      ...                  ",
"                   ....                                  ....                   ",
"                    ....                                ....                    ",
"                     ....                              ....                     ",
"                     .....                            ....                      ",
"                      .... ....                 ..........                      ",
"                       .........                .........                       ",
"                       .......                    .......                       ",
"                       ......                      .....                        ",
"                       ......                      .....                        ",
"                       .....       ..........       ....                        ",
"                       .....     ..............     ....                        ",
"                       .....   ..................   .....                       ",
"                       .....  ...................   .....                       ",
"                       .....  ...................   .....                       ",
"                       .....  .......      ......   .....                       ",
"                       .....  .....          ....   .....                       ",
"                       .....  ....     .      ...   .....                       ",
"                       .....   ..   ........   ..   .....                       ",
"                       .....       ..........      .....                        ",
"                        .....      ...    ...      .....                        ",
"                        ......    ...      ...    ......                        ",
"                        .............      .............                        ",
"                         ............      ............                         ",
"                         ............     ............                          ",
"                          ............    ............                          ",
"                           ..........................                           ",
"                            .......................                             ",
"                              ....................                              ",
"                        ...     ...............      ...                        ",
"               ...      ....         ......        .....      ...               ",
"               .....    .....                      .....    .....               ",
"               ..............                      ..............               ",
"               ..............                      ..............               ",
"               ..............                      .............                ",
"                .............    ...        ...    .............                ",
"                .............   .....      ....    .............                ",
"                .............    ....     ....     .............                ",
"                .............                      ............                 ",
"                 ............                      ............                 ",
"                 .............                    .............                 ",
"                  ............                    ............                  ",
"            ...    .......  ...      ....        ... ........    ....           ",
"           .....     ...    ...     ......       ...    ..      .....           ",
"          .......            ...     .   .      ...            .......          ",
"          ........            ...              ...            .........         ",
"         ..........           ....            ...            ..........         ",
"         ...........           .....        ....           ............         ",
"         .............           .....   ......           .............         ",
"          .............           ............          ..............          ",
"       .   ..............           ........           ..............   .       ",
"      ..    ..............         ..........         ..............   ...      ",
"      ...    ..............       ....    ....       ..............    ...      ",
"     .....    .............       ..       ...       .............    .....     ",
"     ......    ...........        ..        ..        ..........    .......     ",
"     .......     .........                            .........    .........    ",
"    ..........     ......                              ......     ..........    ",
"    ...........      ....                              ....     ............    ",
"   ..............      .                                       ..............   ",
"   ................                                          ................   ",
"   ..................                                     ...................   ",
"   ....................   ..                       ...   ....................   ",
"  ....................   .....                    .....   ....................  ",
"  ....................   .......                .......   ....................  ",
"  ...................   ...........          ...........  ....................  ",
"  ...................   ................................   ...................  ",
"  ...................  .................................   .................... ",
" ....................  ..................................  .................... ",
" ...................   ..................................   ................... ",
" ...................   ..................................   ................... ",
" ...................   ..................................   ................... ",
" ...................  ....................................  ................... ",
" ...................  ....................................  ................... ",
" ...................  ....................................  ................... ",
" ...................  ....................................  ................... ",
" ...................  ....................................  ................... ",
" ...................  ....................................  ................... ",
" ...................  ....................................  ................... ",
"  ..................  ....................................  ..................  ",
"   .................  ....................................  .................   "};
